<svg width="36" height="36" viewBox="0 0 36 36" fill="none" xmlns="http://www.w3.org/2000/svg">
<path d="M26 13C26 10.8783 25.1571 8.84344 23.6569 7.34315C22.1566 5.84285 20.1217 5 18 5C15.8783 5 13.8434 5.84285 12.3431 7.34315C10.8429 8.84344 10 10.8783 10 13C10 22.3333 6 25 6 25H30C30 25 26 22.3333 26 13Z" stroke="#444444" stroke-width="1.5" stroke-linecap="round" stroke-linejoin="round"/>
<path d="M20 30C19.7968 30.3042 19.505 30.5566 19.154 30.7321C18.803 30.9076 18.4051 31 18 31C17.5949 31 17.197 30.9076 16.846 30.7321C16.495 30.5566 16.2032 30.3042 16 30" stroke="#444444" stroke-width="1.5" stroke-linecap="square" stroke-linejoin="round"/>
</svg>
