<svg width="24" height="24" viewBox="0 0 24 24" fill="none" xmlns="http://www.w3.org/2000/svg">
<path d="M21 5H21.5V4.42407L20.9298 4.50496L21 5ZM14.4575 5.45902L14.54 4.96587L14.4575 5.45902ZM3.90516 8.44262L4.33143 8.70395L4.33143 8.70395L3.90516 8.44262ZM4.42906 14.2337C3.92712 15.5671 3.61621 17.1473 3.61621 19H4.61621C4.61621 17.2611 4.90765 15.8008 5.36495 14.586L4.42906 14.2337ZM4.54169 14.7616C5.71931 15.951 7.73946 17.409 9.98529 17.8717C11.1173 18.1049 12.3199 18.0875 13.4966 17.6399C14.6753 17.1915 15.7901 16.3259 16.767 14.9254L15.9469 14.3533C15.0666 15.6151 14.1043 16.3388 13.1411 16.7052C12.1759 17.0724 11.1717 17.0951 10.1871 16.8923C8.1996 16.4828 6.347 15.1637 5.25232 14.0581L4.54169 14.7616ZM16.767 14.9254C18.6405 12.2399 19.8189 10.0491 20.5307 8.39339C21.2348 6.75575 21.5 5.60106 21.5 5H20.5C20.5 5.39348 20.3009 6.39616 19.612 7.99842C18.931 9.58256 17.7879 11.7142 15.9469 14.3533L16.767 14.9254ZM20.9298 4.50496C19.2229 4.74707 17.1823 5.40792 14.54 4.96587L14.375 5.95216C17.2201 6.42814 19.5411 5.71195 21.0702 5.49504L20.9298 4.50496ZM14.54 4.96587C13.7865 4.8398 11.7258 4.54376 9.51749 4.81277C7.31918 5.08058 4.86263 5.92411 3.47888 8.1813L4.33143 8.70395C5.48025 6.82998 7.56242 6.05834 9.63842 5.80544C11.7044 5.55375 13.6536 5.83147 14.375 5.95216L14.54 4.96587ZM3.47888 8.1813C2.40093 9.93967 2.31648 11.4351 2.72936 12.6027C3.13352 13.7457 3.98827 14.5002 4.66599 14.8533L5.12801 13.9664C4.63093 13.7074 3.97673 13.1308 3.67216 12.2694C3.3763 11.4327 3.38333 10.2505 4.33143 8.70395L3.47888 8.1813ZM20.6834 4.61302C18.034 6.78068 14.6846 7.37251 11.5304 8.32247C8.42446 9.25792 5.54814 10.5531 4.41867 14.2643L5.37534 14.5554C6.34886 11.3567 8.77405 10.197 11.8188 9.27999C14.8154 8.37749 18.466 7.71932 21.3166 5.38698L20.6834 4.61302Z" fill="#444444"/>
</svg>
