<svg width="110" height="45" viewBox="0 0 110 45" fill="none" xmlns="http://www.w3.org/2000/svg">
<path d="M19.9724 1.22878L20.1745 1.32841L21.2186 0.0332103H21.5554L20.1408 1.85978L20.444 2.02583C20.4664 2.02583 20.5226 2.05904 20.6124 2.12546C20.7022 2.19188 20.8145 2.31365 20.9492 2.49077C21.0839 2.6679 21.1962 2.92251 21.286 3.25461C21.3982 3.56458 21.4544 3.9631 21.4544 4.45018C21.2972 3.9631 21.1063 3.56458 20.8818 3.25461C20.6573 2.92251 20.3991 2.75646 20.1072 2.75646H19.9724L18.019 4.91513H18.2211C18.2435 4.91513 18.3782 5.07011 18.6252 5.38007C18.8947 5.6679 19.1641 6.07749 19.4336 6.60886C19.7255 7.14022 19.9163 7.77122 20.0061 8.50185C19.8265 7.9262 19.5795 7.36162 19.2652 6.80812C18.9733 6.23247 18.6365 5.81181 18.2547 5.54613C18.0976 5.45756 17.9292 5.41328 17.7495 5.41328C17.6822 5.41328 17.6036 5.42435 17.5138 5.44649H17.4464L15.2235 7.93727L15.4593 8.10332C15.4817 8.10332 15.6838 8.29151 16.0655 8.6679C16.4472 9.02214 16.8626 9.55351 17.3117 10.262H16.8065C16.4697 9.66421 16.1217 9.19926 15.7624 8.86716C15.448 8.57934 15.1337 8.43542 14.8194 8.43542H14.6509L14.5499 8.46863L13.4048 10.262H12.428V11.7897C12.428 11.8118 12.4168 11.8229 12.3944 11.8229H12.3607L12.2933 11.8561L10.7777 14.2472L10.9798 14.3801C11.0022 14.3801 11.1594 14.5572 11.4513 14.9114C11.7657 15.2657 12.0912 15.8303 12.428 16.6052V17.0701H12.5964C12.9333 18 13.1241 19.2288 13.169 20.7565C12.922 19.4502 12.5852 18.155 12.1586 16.8708C11.7544 15.5646 11.2829 14.8118 10.744 14.6125L10.3399 14.5461L10.4409 14.9446C10.643 15.8303 10.8451 17.0369 11.0472 18.5646C11.1594 19.4945 11.2156 20.3579 11.2156 21.155C11.2156 21.6863 11.1931 22.1845 11.1482 22.6494C11.0584 21.1218 10.9012 19.7712 10.6767 18.5978C10.4746 17.4244 10.1939 16.7823 9.83466 16.6716H9.7673C9.58767 16.6716 9.4305 16.7712 9.29577 16.9705C9.18351 17.1476 9.08247 17.369 8.99265 17.6347C8.81302 18.0775 8.3415 18.9077 7.57808 20.1255C6.81466 21.3432 6.07369 22.4945 5.35517 23.5793C5.4899 22.7823 5.92774 21.6974 6.66871 20.3247C7.40968 18.952 8.19555 17.6568 9.02633 16.4391L9.16105 16.2399L8.95897 16.0738C8.8018 15.9852 8.61094 15.941 8.3864 15.941C7.62298 15.941 6.59012 16.3616 5.28781 17.203C4.00796 18.0221 2.89651 18.8081 1.95346 19.5609C2.69443 18.6974 3.62625 17.9557 4.74893 17.3358C5.87161 16.7159 6.88202 16.2399 7.78016 15.9077C8.6783 15.5756 9.16105 15.3985 9.22841 15.3764L9.32945 15.3432L11.384 11.9889L11.2156 11.8561C10.9686 11.679 10.6205 11.5904 10.1715 11.5904C9.7673 11.5904 9.11615 11.7011 8.218 11.9225C7.34231 12.1439 6.30945 12.4982 5.11941 12.9852C6.17473 12.4539 7.17391 12.0664 8.11696 11.8229C9.08247 11.5572 9.87957 11.3801 10.5083 11.2915C11.137 11.203 11.4738 11.1587 11.5187 11.1587H11.6197L14.7857 6.84133V6.70849C14.7857 6.53137 14.7295 6.39852 14.6173 6.30996C14.4152 6.19926 14.1233 6.14391 13.7416 6.14391C13.315 6.14391 12.6301 6.24354 11.6871 6.4428C10.7665 6.64207 9.67749 6.92989 8.42009 7.30627C9.58767 6.81919 10.7553 6.45387 11.9228 6.21033C13.0904 5.94465 14.0672 5.75646 14.853 5.64576C15.6389 5.53506 16.0543 5.4797 16.0992 5.4797H16.2339L17.9516 3.65314V3.55351C17.9516 3.48708 17.9292 3.43173 17.8843 3.38745C17.8394 3.32103 17.7832 3.26568 17.7159 3.2214C17.5811 3.1107 17.3117 3.05535 16.9075 3.05535C16.8626 3.05535 16.7054 3.06642 16.436 3.08856C16.189 3.08856 15.7512 3.13284 15.1225 3.2214C16.1329 3.04428 16.9075 2.95572 17.4464 2.95572C17.5138 2.95572 17.6934 2.96679 17.9853 2.98893C18.2772 2.98893 18.4231 3 18.4231 3.02214L18.5915 3.05535L19.5683 1.5941L19.5346 1.49446C19.5346 1.45018 19.5121 1.38376 19.4672 1.2952C19.4448 1.20664 19.3887 1.12915 19.2988 1.06273C19.2539 1.01845 19.1978 0.98524 19.1304 0.9631C19.6918 1.11808 19.9724 1.20664 19.9724 1.22878ZM7.98224 44.6015C8.29659 44.6015 8.8467 44.4686 9.63258 44.203C10.4409 43.9151 11.4064 43.2509 12.5291 42.2103V45H6.73607L0 38.1919V0.0332103H20.545L20.0061 0.697417C19.6469 0.476015 18.6926 0.332103 17.1433 0.265683H16.8402C15.2909 0.265683 13.1802 0.697417 10.5083 1.56089L10.643 2.02583C11.6085 1.84871 12.675 1.68266 13.8426 1.52768C15.0327 1.35055 16.1104 1.25092 17.0759 1.22878H17.5811C18.2547 1.22878 18.715 1.30627 18.962 1.46125C18.9845 1.46125 18.9957 1.47232 18.9957 1.49446L18.3558 2.49077C18.2211 2.44649 17.9965 2.42435 17.6822 2.42435C17.2107 2.42435 16.3799 2.50184 15.1898 2.65683C13.9998 2.81181 12.0463 3.42066 9.32945 4.48339L9.49786 4.94834C11.1594 4.52768 12.7424 4.17343 14.2468 3.88561C15.3919 3.66421 16.2452 3.55351 16.8065 3.55351C16.9637 3.55351 17.0984 3.56458 17.2107 3.58672L15.9308 4.98155C15.594 5.00369 14.8418 5.11439 13.6742 5.31365C12.5066 5.49077 11.1931 5.81181 9.73362 6.27675C8.29659 6.71956 7.00551 7.33948 5.86038 8.13653L4.51317 9.09963L6.09614 8.56827C7.95979 7.94834 9.69994 7.43911 11.3166 7.04059C12.4393 6.77491 13.2588 6.64207 13.7753 6.64207C13.9773 6.64207 14.1345 6.66421 14.2468 6.70849L11.3503 10.6605C10.8114 10.6605 9.63258 10.893 7.81384 11.3579C6.01755 11.8229 4.22127 12.7528 2.42498 14.1476L1.04409 15.3764L2.72811 14.5793C4.09777 13.9373 5.59094 13.3395 7.20759 12.786C8.48745 12.3432 9.4754 12.1218 10.1715 12.1218C10.3511 12.1218 10.5195 12.1328 10.6767 12.155L8.99265 14.9446C8.63339 15.0332 7.8812 15.321 6.73607 15.8081C5.59094 16.2731 4.42335 16.9041 3.23331 17.7011C2.04327 18.4982 1.21249 19.4391 0.740968 20.524L0.404164 21.4207L1.14513 20.8229C2.44744 19.7601 3.80588 18.7638 5.22045 17.8339C6.65748 16.9041 7.7128 16.428 8.3864 16.4059C8.00469 16.9815 7.48826 17.8118 6.83711 18.8967C6.20841 19.9815 5.68075 21.0443 5.25413 22.0849C4.98469 22.7491 4.84997 23.3026 4.84997 23.7454C4.84997 24.0111 4.89488 24.2325 4.98469 24.4096L5.22045 24.7085L5.42253 24.3764C5.4899 24.31 5.7032 23.9889 6.06246 23.4133C6.44417 22.8376 6.88202 22.1734 7.376 21.4207C7.86997 20.6458 8.31904 19.9262 8.72321 19.262C9.12737 18.5756 9.38559 18.0886 9.49786 17.8007C9.63258 17.4465 9.72239 17.2472 9.7673 17.203C9.96938 17.5129 10.149 18.3432 10.3062 19.6937C10.4858 21.0221 10.6093 22.4613 10.6767 24.0111L10.7103 24.7417L11.1482 24.1439C11.5299 23.5683 11.7208 22.738 11.7208 21.6531V21.2214C11.7208 20.2694 11.6422 19.262 11.485 18.1993C11.3503 17.1365 11.2156 16.262 11.0808 15.5756C11.4401 16.1956 11.7881 17.203 12.1249 18.5978C12.4842 19.9705 12.7873 21.4539 13.0343 23.048L13.3037 24.941L13.5395 23.048C13.6293 22.1845 13.6742 21.3875 13.6742 20.6568C13.6742 19.1734 13.5058 17.9779 13.169 17.0701H15.9645C16.3237 17.8672 16.6044 18.5203 16.8065 19.0295L17.2443 20.1255L17.3117 18.9631V18.631C17.3117 18.0775 17.2668 17.5572 17.177 17.0701H21.4207V27.2989H12.428L12.5291 40.1513L12.2596 39.952C12.2596 39.6642 12.2035 39.155 12.0912 38.4244C12.0014 37.6716 11.7881 36.9188 11.4513 36.1661C11.137 35.4133 10.6318 34.8708 9.9357 34.5387L9.32945 34.3063L9.5989 34.9041C9.82343 35.3911 10.0929 36.0775 10.4072 36.9631C10.7216 37.8266 10.9012 38.5793 10.9461 39.2214C10.3623 38.6679 9.54276 38.0369 8.48745 37.3284C7.5444 36.7085 6.70239 36.3985 5.96142 36.3985C5.84915 36.3985 5.73688 36.4096 5.62462 36.4317L5.01837 36.5646L5.55726 36.8967C6.61257 37.4945 7.56685 38.1144 8.42009 38.7565C9.29577 39.3764 9.83466 39.8635 10.0367 40.2177C9.67749 40.3063 9.08247 40.417 8.25168 40.5498C7.4209 40.6827 6.55644 40.7491 5.6583 40.7491C4.76016 40.7491 4.04164 40.5941 3.50276 40.2841L1.81874 39.2214L3.16595 40.6827C3.18841 40.7048 3.34558 40.8266 3.63748 41.048C3.92937 41.2472 4.37844 41.4354 4.98469 41.6125C5.52358 41.7897 6.21964 41.8782 7.07287 41.8782C7.16269 41.8782 7.46581 41.8782 7.98224 41.8782C8.52113 41.8782 9.46418 41.679 10.8114 41.2804L11.1482 41.5793C11.0135 41.7343 10.6879 42.0332 10.1715 42.476C9.65503 42.8967 8.81302 43.4391 7.64544 44.1033L7.03919 44.4686L7.7128 44.5683V44.6015H7.98224ZM20.4103 10.262L20.444 10.0627C20.5113 9.64207 20.545 9.25461 20.545 8.90037C20.545 7.99262 20.3317 7.14022 19.9051 6.34317C19.4785 5.54613 19.0968 4.99262 18.76 4.68266L20.1745 2.95572C20.3542 3.08856 20.5562 3.42066 20.7808 3.95203C21.0053 4.4834 21.1962 5.10332 21.3533 5.81181L21.6901 7.14022L21.8922 5.81181C21.9596 5.28044 21.9933 4.80443 21.9933 4.38376C21.9933 3.71956 21.881 3.13284 21.6565 2.62362C21.4544 2.11439 21.2186 1.78229 20.9492 1.62731L22.0943 0.166052V10.262H20.4103ZM17.9853 6.01107C18.2997 6.21033 18.5803 6.57565 18.8273 7.10701C19.0968 7.61624 19.3213 8.15867 19.5009 8.73432C19.703 9.28782 19.8489 9.73063 19.9388 10.0627L19.9724 10.262H17.9179C17.1321 9 16.4921 8.20295 15.9982 7.87085L17.7159 5.91144C17.8057 5.91144 17.8955 5.94465 17.9853 6.01107ZM14.853 8.93358C15.2572 8.97786 15.7063 9.42066 16.2002 10.262H14.011L14.853 8.93358ZM12.428 15.3764C12.0239 14.7343 11.6983 14.3137 11.4513 14.1144L12.428 12.5867V15.3764ZM16.7055 17.4686C16.6605 17.3358 16.6044 17.203 16.537 17.0701H16.6381V17.1697C16.683 17.2583 16.7055 17.3579 16.7055 17.4686ZM8.95897 43.9373C9.72239 43.4502 10.295 43.0406 10.6767 42.7085C11.0808 42.3764 11.3503 42.1218 11.485 41.9447C11.6422 41.7675 11.7208 41.6568 11.7208 41.6125L11.7881 41.4465L10.9461 40.7159L10.8114 40.7823C9.28455 41.203 8.01592 41.4133 7.00551 41.4133C6.48908 41.4133 6.04001 41.3579 5.6583 41.2472C6.37681 41.2472 7.0841 41.203 7.78016 41.1144C8.49867 41.0258 9.09369 40.9373 9.56522 40.8487C10.0592 40.738 10.3399 40.6716 10.4072 40.6494L10.6093 40.6162V40.4502C10.5869 39.9852 10.1715 39.4317 9.36314 38.7897C8.55481 38.1476 7.72403 37.572 6.87079 37.0627C7.63421 37.3948 8.39763 37.8598 9.16105 38.4576C9.94693 39.0332 10.5419 39.5203 10.9461 39.9188L11.2492 40.1845L11.384 39.8192C11.4289 39.6421 11.4513 39.4428 11.4513 39.2214C11.4513 38.8007 11.3503 38.2362 11.1482 37.5277C10.9461 36.8192 10.7103 36.1439 10.4409 35.5018C10.7553 35.8561 11.0022 36.2878 11.1819 36.797C11.3615 37.2841 11.485 37.7823 11.5524 38.2915C11.6422 38.7786 11.6983 39.1993 11.7208 39.5535C11.7432 39.8856 11.7544 40.0627 11.7544 40.0849V40.1845L12.2596 40.6162L12.1923 41.845C10.8226 43.0627 9.74485 43.7601 8.95897 43.9373Z" fill="#45AD6E"/>
<path d="M45.3337 27.0332L52.0698 45H25.4623L25.6307 0.0332103C25.6307 0.0332103 26.1247 0.0332103 27.1127 0.0332103C28.1231 0.0110701 28.9202 0 29.504 0C30.6491 0 32.1198 0.0110701 33.9161 0.0332103C35.7124 0.0553506 37.6771 0.110701 39.8102 0.199262C41.9657 0.265683 43.7508 0.376384 45.1653 0.531365C47.8822 0.774908 50.15 1.61624 51.9688 3.05535C53.7875 4.49446 54.854 7.11808 55.1684 10.9262C55.2582 11.7454 55.3031 12.5203 55.3031 13.2509C55.3031 19.9815 52.0361 24.2214 45.5021 25.9705C45.592 25.2841 45.6369 24.7306 45.6369 24.31C45.6369 23.8672 45.6369 23.6236 45.6369 23.5793L45.6032 23.1144L45.1317 23.3137C42.9312 24.3985 41.2921 25.6384 40.2143 27.0332C39.159 28.4059 38.4742 29.679 38.1598 30.8524L38.0925 18.3321C38.0925 18.1771 38.0925 18.0221 38.0925 17.8672C38.2047 18.4871 38.4068 19.1513 38.6987 19.8598C39.0131 20.5461 39.4621 21.0332 40.0459 21.321C40.248 21.3875 40.4501 21.4207 40.6522 21.4207C41.2584 21.4207 41.9208 21.0886 42.6393 20.4244C43.4252 19.6937 43.8181 18.9742 43.8181 18.2657C43.8181 18.1107 43.7957 17.9557 43.7508 17.8007C43.5038 17.0701 42.9986 16.5055 42.2351 16.107C42.4597 16.1292 42.6842 16.1402 42.9088 16.1402C43.6722 16.1402 44.3233 15.941 44.8622 15.5424C45.199 15.2103 45.3674 14.7675 45.3674 14.214C45.3674 13.8155 45.2776 13.3616 45.098 12.8524C44.6714 11.6125 44.0202 10.9151 43.1445 10.7601C43.0547 10.7601 42.9649 10.7601 42.8751 10.7601C42.2239 10.7601 41.5728 10.9815 40.9216 11.4244C40.2705 11.845 39.7428 12.2768 39.3386 12.7196C39.6754 12.1661 39.9449 11.6125 40.147 11.059C40.3491 10.4834 40.4501 10.0295 40.4501 9.69742C40.4501 9.32103 40.3715 8.96679 40.2143 8.63469C39.8551 8.01476 39.1253 7.7048 38.0251 7.7048C37.9128 7.7048 37.8006 7.7048 37.6883 7.7048C36.3411 7.77122 35.4654 8.20295 35.0612 9C34.9041 9.30996 34.8255 9.65314 34.8255 10.0295C34.8255 10.1402 34.8479 10.3616 34.8928 10.6937C34.9377 11.0037 35.0612 11.3911 35.2633 11.8561C35.4654 12.321 35.6563 12.7085 35.8359 13.0184C36.0155 13.3063 36.1278 13.4723 36.1727 13.5166L36.4085 13.8487L36.6779 13.5498C36.8351 13.417 36.9922 13.3506 37.1494 13.3506C37.3066 13.3284 37.4189 13.3173 37.4862 13.3173C37.6434 13.3173 37.823 13.3395 38.0251 13.3838C38.2272 13.428 38.3844 13.4723 38.4966 13.5166L38.7661 13.6162L38.7998 13.5498L39.0355 13.6827C39.2825 13.8376 39.4397 14.059 39.507 14.3469C39.5969 14.6347 39.6418 14.8893 39.6418 15.1107H39.5744L39.5407 15.5092C39.5183 15.6642 39.4397 15.8081 39.305 15.941C39.1702 16.0517 39.0243 16.1513 38.8671 16.2399C38.7099 16.3284 38.564 16.3948 38.4293 16.4391C38.317 16.4834 38.2496 16.5055 38.2272 16.5055L37.9241 16.572V16.6052L37.6546 16.7048C37.5873 16.7048 37.5311 16.7048 37.4862 16.7048C37.2168 16.7048 36.9473 16.6273 36.6779 16.4723C36.4084 16.2952 36.2064 16.1402 36.0716 16.0074L35.9032 15.8081L35.6675 15.9077C35.6675 15.9299 35.6563 15.941 35.6338 15.941L35.5328 15.6421C35.5103 15.5535 35.4991 15.4649 35.4991 15.3764C35.4991 15.1771 35.5664 14.9446 35.7012 14.679C35.8359 14.4133 35.9706 14.203 36.1053 14.048L36.2737 13.8819L36.139 13.6494C36.0716 13.5166 35.8583 13.2066 35.4991 12.7196C35.1398 12.2103 34.6908 11.7232 34.1519 11.2583C33.613 10.7712 33.0404 10.5277 32.4342 10.5277H32.3331C31.5023 10.6162 30.8512 11.2583 30.3797 12.4539C30.1551 13.0074 30.0429 13.5055 30.0429 13.9483C30.0429 14.4797 30.2 14.9336 30.5144 15.31C30.8736 15.7085 31.3339 15.9963 31.8953 16.1734C32.4791 16.3284 33.0404 16.4059 33.5793 16.4059C34.2978 16.4059 34.8255 16.3948 35.1623 16.3727C35.2296 16.3727 35.2745 16.3727 35.297 16.3727C34.9826 16.3727 34.5785 16.5387 34.0845 16.8708C33.5905 17.1808 33.1527 17.5793 32.771 18.0664C32.3893 18.5314 32.1872 19.0185 32.1647 19.5277C32.1647 19.5498 32.1647 19.5609 32.1647 19.5609C32.1647 20.2915 32.7373 20.9225 33.8824 21.4539C34.5111 21.786 35.0837 21.952 35.6001 21.952C36.0267 21.952 36.4085 21.8413 36.7453 21.6199C37.0147 21.4207 37.2392 21.1771 37.4189 20.8893L37.4525 28.7269C37.2505 27.7085 36.7789 26.6125 36.038 25.4391C35.3195 24.2657 34.1855 23.369 32.6363 22.7491L32.2994 22.6162L32.1984 22.9815C32.176 23.0258 32.1086 23.2694 31.9963 23.7122C31.9065 24.1328 31.8504 24.5203 31.8279 24.8745C31.8279 25.2288 31.8279 25.4502 31.8279 25.5387C31.8279 26.1144 31.9065 26.7232 32.0637 27.3653C32.2209 28.0074 32.5577 28.5941 33.0741 29.1255C33.7702 29.8118 34.4438 30.2657 35.0949 30.4871C35.7461 30.6863 36.285 30.786 36.7116 30.786C37.1382 30.786 37.3852 30.7638 37.4525 30.7196L37.4862 38.7232C36.139 37.2177 34.6571 36.3985 33.0404 36.2657C32.9057 36.2657 32.771 36.2657 32.6363 36.2657C31.9402 36.2657 31.289 36.3764 30.6828 36.5978C30.0765 36.797 29.5713 37.0295 29.1672 37.2952C28.7855 37.5387 28.5834 37.6827 28.5609 37.7269L28.2578 37.9926L28.5609 38.2251C30.694 39.7749 32.5801 40.5498 34.2192 40.5498C35.0051 40.5498 35.6787 40.4723 36.24 40.3173C36.8014 40.1402 37.228 39.9852 37.5199 39.8524V44.6679H38.2272V42.8745H38.3956C40.7083 42.6753 42.5158 41.7897 43.8181 40.2177C45.1429 38.6236 46.0073 37.1181 46.4115 35.7011C46.5911 35.0812 46.681 34.5941 46.681 34.2399C46.681 33.8856 46.6024 33.6531 46.4452 33.5424C46.4227 33.5424 46.3778 33.5314 46.3105 33.5092C46.2431 33.4871 46.1645 33.476 46.0747 33.476C46.0073 33.476 45.9288 33.5203 45.8389 33.6089C45.4348 33.8524 44.8959 34.0517 44.2223 34.2066C43.661 34.3395 43.0547 34.5387 42.4035 34.8044C41.7748 35.0701 41.1686 35.524 40.5848 36.1661C39.9561 36.9852 39.4397 37.9373 39.0355 39.0221C38.6538 40.0849 38.3731 40.9815 38.1935 41.7122L38.1598 33.6421C40.5399 33.31 42.2576 32.4797 43.3129 31.1513C44.3907 29.8229 45.0643 28.4502 45.3337 27.0332ZM37.9914 8.369C38.8447 8.369 39.3835 8.56827 39.6081 8.96679C39.6979 9.18819 39.7428 9.43173 39.7428 9.69742C39.7428 10.0517 39.6193 10.5387 39.3723 11.1587C39.1253 11.7565 38.8334 12.2989 38.4966 12.786C38.2496 12.7196 38.0139 12.6753 37.7893 12.6531C37.5873 12.631 37.4525 12.6199 37.3852 12.6199C37.0933 12.6199 36.8126 12.6863 36.5432 12.8192C36.2513 12.3764 36.0043 11.8893 35.8022 11.3579C35.6226 10.8266 35.5328 10.3948 35.5328 10.0627C35.5328 9.79705 35.5777 9.54243 35.6675 9.29889C35.9594 8.74539 36.6442 8.43542 37.722 8.369C37.8118 8.369 37.9016 8.369 37.9914 8.369ZM32.4342 11.1919C32.9955 11.1919 33.5568 11.5018 34.1182 12.1218C34.6795 12.7417 35.1174 13.3063 35.4317 13.8155C35.297 13.9705 35.1623 14.1919 35.0276 14.4797C34.8928 14.7675 34.8255 15.0664 34.8255 15.3764C34.8255 15.4207 34.8255 15.4649 34.8255 15.5092C34.5111 15.5535 34.1631 15.5756 33.7814 15.5756C33.467 15.5756 33.0292 15.5535 32.4678 15.5092C31.929 15.4649 31.4462 15.2325 31.0196 14.8118C30.84 14.5683 30.7502 14.2694 30.7502 13.9151C30.7502 13.5609 30.84 13.1402 31.0196 12.6531C31.4013 11.7232 31.8504 11.2362 32.3668 11.1919C32.3893 11.1919 32.4117 11.1919 32.4342 11.1919ZM44.3907 15.0443C44.0314 15.3321 43.5487 15.476 42.9424 15.476C42.7853 15.476 42.4485 15.4539 41.932 15.4096C41.438 15.3432 40.9104 15.2103 40.349 15.0111C40.349 14.7897 40.3041 14.524 40.2143 14.214C40.1245 13.8819 39.9561 13.583 39.7091 13.3173C40.0908 12.8967 40.5624 12.4871 41.1237 12.0886C41.7075 11.6679 42.2688 11.4576 42.8077 11.4576C42.8751 11.4576 42.9537 11.4576 43.0435 11.4576C43.6497 11.5461 44.1212 12.0886 44.458 13.0849C44.6152 13.5277 44.6938 13.9041 44.6938 14.214C44.6938 14.5683 44.5928 14.845 44.3907 15.0443ZM40.3154 20.6568C39.7989 20.4133 39.406 19.9041 39.1366 19.1292C38.8896 18.3542 38.7324 17.6679 38.665 17.0701C38.8896 17.0037 39.1478 16.8819 39.4397 16.7048C39.7316 16.5055 39.9561 16.2509 40.1133 15.941C40.6522 16.0738 41.236 16.3173 41.8647 16.6716C42.4934 17.0258 42.9088 17.4576 43.1108 17.9668C43.1333 18.0554 43.1445 18.1439 43.1445 18.2325C43.1445 18.7417 42.8077 19.3063 42.1341 19.9262C41.5728 20.4576 41.0788 20.7232 40.6522 20.7232C40.5399 20.7232 40.4276 20.7011 40.3154 20.6568ZM32.8383 19.3948C32.9057 18.8413 33.265 18.31 33.9161 17.8007C34.5897 17.2915 35.2072 16.9041 35.7685 16.6384C35.9257 16.7934 36.139 16.9594 36.4085 17.1365C36.7003 17.2915 37.0259 17.3801 37.3852 17.4022V18.3653C37.3627 18.8745 37.2729 19.3838 37.1157 19.893C36.9586 20.4022 36.7116 20.7897 36.3748 21.0553C36.1502 21.1882 35.9032 21.2546 35.6338 21.2546C35.2296 21.2546 34.7469 21.1218 34.1855 20.8561C33.2874 20.3911 32.8383 19.9041 32.8383 19.3948ZM32.771 23.5461C33.8712 24.0553 34.7132 24.7528 35.297 25.6384C35.9032 26.5018 36.3299 27.3542 36.5769 28.1956C36.8238 29.0369 36.9698 29.6679 37.0147 30.0886C36.9249 30.1107 36.8238 30.1218 36.7116 30.1218C36.4197 30.1218 36.0043 30.0554 35.4654 29.9225C34.9265 29.7675 34.2978 29.3469 33.5793 28.6605C32.8832 27.8413 32.5352 26.9225 32.5352 25.9041C32.5352 24.8635 32.6138 24.0775 32.771 23.5461ZM44.9633 24.1439C44.9633 24.2546 44.9633 24.3653 44.9633 24.476C44.9633 25.1402 44.851 26.048 44.6265 27.1993C44.4019 28.3506 43.8181 29.5129 42.8751 30.6863C41.932 31.8376 40.4613 32.5904 38.463 32.9447C38.463 32.524 38.6089 31.8044 38.9008 30.786C39.2151 29.7675 39.8326 28.6605 40.7532 27.4649C41.6738 26.2472 43.0772 25.1402 44.9633 24.1439ZM45.9737 34.3063C45.9737 34.6605 45.8389 35.2251 45.5695 36C45.3001 36.7749 44.8622 37.6273 44.256 38.5572C43.762 39.3542 43.0547 40.1181 42.1341 40.8487C41.236 41.5572 40.1245 41.9889 38.7998 42.1439C38.9345 41.524 39.1927 40.6494 39.5744 39.5203C39.9561 38.3911 40.4725 37.417 41.1237 36.5978C41.6177 36.0443 42.1453 35.6458 42.7067 35.4022C43.2905 35.1587 43.863 34.9815 44.4244 34.8708C45.0082 34.738 45.5246 34.5498 45.9737 34.3063ZM32.9731 36.9631C34.455 37.0738 35.8247 37.8487 37.0821 39.2878C36.4983 39.6199 35.8359 39.8081 35.0949 39.8524C34.3539 39.8745 33.961 39.8856 33.9161 39.8856C32.5464 39.8856 31.0196 39.2546 29.3356 37.9926C29.6499 37.7712 30.099 37.5498 30.6828 37.3284C31.289 37.0849 31.929 36.9631 32.6026 36.9631C32.7373 36.9631 32.8608 36.9631 32.9731 36.9631Z" fill="#45AD6E"/>
<path d="M72.177 0.0332103V45H59.7489V6.84133L66.6197 0.0664207L72.177 0.0332103ZM71.8738 38.1919L72.1096 37.6605L71.537 37.6937C70.9083 37.7823 70.2572 38.059 69.5836 38.524C68.9324 38.9668 68.3711 39.4207 67.8996 39.8856C67.9669 39.3764 68.0006 38.8229 68.0006 38.2251C68.0006 37.9373 67.9894 37.6384 67.9669 37.3284L68.3037 37.3616L67.9333 36.9631C67.8659 36.321 67.7648 35.6568 67.6301 34.9705C68.7977 34.7934 69.6846 34.262 70.2909 33.3764C70.8971 32.4908 71.2676 31.6716 71.4023 30.9188L71.6044 29.9557L70.8634 30.5867C70.8185 30.631 70.6614 30.7528 70.3919 30.952C70.1225 31.1513 69.8193 31.3838 69.4825 31.6494C69.1457 31.9151 68.8202 32.1365 68.5058 32.3137C67.9894 32.6679 67.5852 33.0886 67.2933 33.5756C67.1137 32.9557 66.8892 32.3026 66.6197 31.6162L66.9228 31.5166L66.4513 31.2177C66.2043 30.5978 66.0022 30 65.8451 29.4244C66.6983 29.3801 67.4505 29.1255 68.1017 28.6605C68.7528 28.1956 69.2917 27.6531 69.7183 27.0332C70.1449 26.4133 70.4705 25.8708 70.695 25.4059C70.9196 24.9188 71.0318 24.6421 71.0318 24.5756L71.2676 23.9446L70.6277 24.1439C69.4601 24.5424 68.4272 25.1402 67.5291 25.9373C66.6534 26.7343 65.9798 27.4428 65.5083 28.0627C65.3511 27.1771 65.2725 26.3247 65.2725 25.5055C65.2725 25.417 65.2725 25.3173 65.2725 25.2066L65.3735 25.2399L65.2725 25.107C65.295 24 65.4072 22.9926 65.6093 22.0849C66.2829 22.3063 66.8892 22.417 67.428 22.417C68.1017 22.417 68.6742 22.2952 69.1457 22.0517C69.6397 21.8081 70.0439 21.5314 70.3582 21.2214C70.6726 20.8893 70.8971 20.6125 71.0318 20.3911C71.189 20.1476 71.2676 20.0148 71.2676 19.9926L71.3686 19.7601L71.1666 19.5941C70.8522 19.3948 70.4705 19.2952 70.0214 19.2952C69.6173 19.2952 69.0222 19.4391 68.2364 19.7269C67.473 19.9926 66.7095 20.3579 65.9461 20.8229C66.2605 19.8708 66.5748 19.0959 66.8892 18.4982L67.2596 18.0664C68.2925 16.893 68.9549 15.8524 69.2468 14.9446C69.5387 14.0148 69.6846 13.2177 69.6846 12.5535C69.6846 12.3764 69.6509 12.0554 69.5836 11.5904C69.5387 11.1033 69.4152 10.6384 69.2131 10.1956C69.011 9.75277 68.8875 9.5203 68.8426 9.49816L68.6069 9.13284L68.3037 9.46494C67.3382 10.6827 66.7993 11.9446 66.6871 13.2509C66.5973 14.5351 66.5524 15.4982 66.5524 16.1402C66.5524 16.6937 66.5748 17.1476 66.6197 17.5018C66.485 17.7454 66.3278 18.0553 66.1482 18.4317C66.0135 17.7897 65.7553 17.0812 65.3735 16.3063C64.9918 15.5092 64.4754 14.9668 63.8242 14.679L63.218 14.5129V15.0111C63.218 15.0554 63.2629 15.3542 63.3527 15.9077C63.4425 16.4613 63.6558 17.0812 63.9926 17.7675C64.3295 18.4539 64.8571 19.0406 65.5756 19.5277L65.643 19.5609C65.4409 20.0923 65.2613 20.69 65.1041 21.3542L64.5989 21.6863L64.9694 21.8524C64.8122 22.5387 64.6999 23.2804 64.6326 24.0775C64.3856 23.7232 64.06 23.2694 63.6558 22.7159C63.2741 22.1402 62.87 21.6089 62.4434 21.1218C62.0392 20.6347 61.6912 20.3026 61.3993 20.1255L61.0625 19.9594L60.9277 20.3247C60.9053 20.3469 60.8716 20.4576 60.8267 20.6568C60.7818 20.8561 60.7593 21.0775 60.7593 21.321C60.7593 21.4096 60.7593 21.5756 60.7593 21.8192C60.7818 22.0406 60.8941 22.3506 61.0961 22.7491C61.6575 23.8118 62.8026 24.5646 64.5315 25.0074L64.5652 25.0406C64.5652 25.1292 64.5652 25.2177 64.5652 25.3063C64.5652 26.3911 64.6999 27.5646 64.9694 28.8266C64.9469 28.8487 64.9245 28.8708 64.902 28.893L64.6326 29.3247L65.1041 29.3911C65.2164 29.8339 65.3623 30.2878 65.5419 30.7528C65.048 30.5314 64.554 30.3875 64.06 30.321C63.566 30.2546 63.2068 30.2214 62.9822 30.2214C62.376 30.2214 61.7248 30.321 61.0288 30.5203L60.6246 30.6531L60.8267 31.0184C60.8492 31.0406 60.9502 31.1624 61.1298 31.3838C61.3095 31.583 61.6013 31.7823 62.0055 31.9816C62.4321 32.1808 62.9822 32.2804 63.6558 32.2804C64.2845 32.2804 65.048 32.1365 65.9461 31.8487C66.3278 32.7565 66.6197 33.631 66.8218 34.4723C66.7993 34.4945 66.7881 34.5055 66.7881 34.5055L66.6197 34.9373H66.8892C66.979 35.3579 67.0576 35.7675 67.1249 36.1661C66.6759 35.7454 66.2043 35.4022 65.7104 35.1365C65.2164 34.8487 64.801 34.7048 64.4642 34.7048C64.307 34.7048 64.1498 34.7269 63.9926 34.7712L63.8242 34.8708L63.7906 35.0369C63.7681 35.059 63.7569 35.0922 63.7569 35.1365C63.7569 35.1808 63.7569 35.2472 63.7569 35.3358C63.7793 35.4022 63.813 35.524 63.8579 35.7011C63.9253 35.8561 64.0376 36.0332 64.1947 36.2325C64.7561 36.8745 65.7665 37.2399 67.226 37.3284C67.2484 37.6827 67.2596 38.0148 67.2596 38.3247C67.2596 39.1882 67.1923 39.9852 67.0576 40.7159L66.6197 41.1808H66.9565C66.9341 41.4022 66.8892 41.6015 66.8218 41.7786C66.5748 41.4022 66.2492 41.0258 65.8451 40.6494C65.4409 40.2731 65.0255 40.0849 64.5989 40.0849C64.5315 40.0849 64.4642 40.0849 64.3968 40.0849L64.0937 40.1513L64.1274 40.4502C64.1274 40.4945 64.161 40.6384 64.2284 40.8819C64.2958 41.1033 64.408 41.369 64.5652 41.679C64.7224 41.9668 64.9582 42.2103 65.2725 42.4096C65.5644 42.6089 65.9012 42.7085 66.2829 42.7085C66.3503 42.7085 66.4176 42.6974 66.485 42.6753C66.5299 42.6753 66.5636 42.6753 66.586 42.6753C66.384 43.2952 66.1931 43.7712 66.0135 44.1033C65.8563 44.4354 65.7665 44.6015 65.744 44.6015L66.3503 44.9668C66.3952 44.9004 66.5636 44.5461 66.8555 43.9041C67.1698 43.262 67.4505 42.3764 67.6975 41.2472C68.3935 41.2251 68.9998 41.0701 69.5162 40.7823C70.0551 40.4945 70.493 40.1624 70.8298 39.786C71.1666 39.3875 71.4135 39.0332 71.5707 38.7232C71.7504 38.4133 71.8514 38.2362 71.8738 38.1919ZM68.5058 10.2952C68.8202 10.8044 68.9773 11.3579 68.9773 11.9557C68.9998 12.5535 69.011 12.8635 69.011 12.8856C69.011 14.059 68.4385 15.4207 67.2933 16.9705C67.2484 16.6384 67.226 16.2731 67.226 15.8745C67.226 15.2546 67.2821 14.4244 67.3944 13.3838C67.5066 12.3432 67.8771 11.3137 68.5058 10.2952ZM65.5756 18.5314C65.149 18.0886 64.8347 17.6125 64.6326 17.1033C64.4529 16.572 64.3407 16.107 64.2958 15.7085C64.6101 16.0627 64.8683 16.5166 65.0704 17.0701C65.295 17.6015 65.4634 18.0886 65.5756 18.5314ZM70.493 19.9926C70.3582 20.2362 70.1112 20.524 69.752 20.8561C69.3927 21.1882 68.9998 21.4207 68.5732 21.5535C68.1466 21.6642 67.7873 21.7196 67.4954 21.7196C67.0912 21.7196 66.6309 21.6531 66.1145 21.5203C66.9004 21.0554 67.6526 20.679 68.3711 20.3911C69.1121 20.1033 69.6959 19.9594 70.1225 19.9594C70.2572 19.9594 70.3807 19.9705 70.493 19.9926ZM61.7361 22.4502C61.534 22.0074 61.4329 21.6199 61.4329 21.2878C61.4329 21.1993 61.4442 21.1107 61.4666 21.0221C61.781 21.3542 62.1515 21.8081 62.5781 22.3838C63.0047 22.9373 63.4089 23.5018 63.7906 24.0775C62.7802 23.679 62.0953 23.1365 61.7361 22.4502ZM70.0888 25.0738C69.7969 25.738 69.2917 26.4908 68.5732 27.3321C67.8771 28.1513 66.9677 28.6273 65.8451 28.7601C66.2043 28.2509 66.7544 27.631 67.4954 26.9004C68.2364 26.1697 69.1008 25.5609 70.0888 25.0738ZM61.7697 31.0184C62.1739 30.952 62.5668 30.9188 62.9486 30.9188C63.2405 30.9188 63.5997 30.952 64.0263 31.0184C64.4529 31.0849 64.8571 31.2066 65.2388 31.3838C64.6101 31.5166 64.0712 31.583 63.6222 31.583C63.3752 31.583 63.0608 31.5498 62.6791 31.4834C62.3199 31.3948 62.0167 31.2399 61.7697 31.0184ZM70.3919 31.8155C70.2123 32.3247 69.8979 32.8339 69.4489 33.3432C69.0223 33.8524 68.4385 34.1624 67.6975 34.2731C67.8098 34.0517 67.9669 33.8081 68.169 33.5424C68.3711 33.2768 68.6069 33.0664 68.8763 32.9114C69.3927 32.5793 69.8979 32.214 70.3919 31.8155ZM64.7336 35.8007C64.5989 35.6458 64.5203 35.5018 64.4979 35.369C64.7673 35.3911 65.0816 35.524 65.4409 35.7675C65.8002 35.9889 66.1594 36.2546 66.5187 36.5646C65.5307 36.3653 64.9357 36.1107 64.7336 35.8007ZM70.8634 38.5904C70.6389 38.9447 70.3021 39.321 69.853 39.7196C69.4264 40.1181 68.8763 40.3838 68.2027 40.5166C68.5844 40.1624 69.011 39.8081 69.4825 39.4539C69.9541 39.0775 70.4144 38.7897 70.8634 38.5904ZM64.9357 40.8155C65.1378 40.9262 65.3399 41.0923 65.5419 41.3137C65.7665 41.5351 65.9686 41.7675 66.1482 42.0111C65.9686 42.0111 65.8002 41.9557 65.643 41.845C65.4634 41.7122 65.3174 41.5572 65.2051 41.3801C65.0929 41.1808 65.0031 40.9926 64.9357 40.8155Z" fill="#45AD6E"/>
<path d="M109.966 35.5683L110 45H97.3025L97.2688 36.8303H93.2945L89.6234 45H75.5787L96.3258 0.0332103H109.899L109.966 33.1771L109.899 33.1439C109.899 32.8561 109.843 32.3469 109.731 31.6162C109.641 30.8635 109.427 30.1107 109.091 29.3579C108.776 28.583 108.271 28.0406 107.575 27.7306L106.969 27.4982L107.238 28.0627C107.485 28.572 107.755 29.2694 108.047 30.155C108.361 31.0184 108.541 31.7712 108.585 32.4133C108.024 31.8598 107.227 31.2509 106.194 30.5867C105.184 29.9225 104.297 29.5904 103.533 29.5904C103.444 29.5904 103.354 29.5904 103.264 29.5904L102.658 29.7565L103.197 30.0554C104.252 30.6753 105.206 31.3063 106.059 31.9483C106.935 32.5683 107.485 33.0554 107.71 33.4096C107.328 33.4982 106.722 33.6089 105.891 33.7417C105.06 33.8745 104.196 33.941 103.298 33.941C102.422 33.941 101.703 33.786 101.142 33.476L99.4581 32.4133L100.805 33.8413C100.828 33.8856 100.985 34.0184 101.277 34.2399C101.569 34.4391 102.007 34.6384 102.59 34.8376C103.197 35.0148 103.938 35.1033 104.813 35.1033C104.881 35.1033 105.161 35.1033 105.655 35.1033C106.172 35.0812 107.103 34.8708 108.451 34.4723L108.788 34.738C108.675 34.9151 108.35 35.214 107.811 35.6347C107.294 36.0554 106.452 36.6089 105.285 37.2952L104.679 37.6273L105.352 37.7601C105.375 37.7823 105.464 37.7934 105.622 37.7934C105.936 37.7934 106.464 37.6716 107.205 37.428C107.968 37.1624 108.889 36.5424 109.966 35.5683ZM98.5824 24.2768C98.9416 23.679 99.1212 22.8376 99.1212 21.7528C99.1212 21.4428 99.0763 20.8229 98.9865 19.893C98.9192 18.941 98.7732 17.9557 98.5487 16.9373C98.8406 17.5572 99.1325 18.4539 99.4244 19.6273C99.7163 20.7786 99.952 22.0074 100.132 23.3137L100.435 25.2066L100.671 23.2804C100.738 22.5498 100.772 21.8635 100.772 21.2214C100.772 19.738 100.547 18.476 100.098 17.4354C99.6489 16.3948 99.2335 15.7417 98.8518 15.476L99.8622 13.8819C99.9071 13.8819 99.9633 13.893 100.031 13.9151C100.412 14.0923 100.828 14.5572 101.277 15.31C101.726 16.0627 102.152 16.8708 102.557 17.7343C102.961 18.5756 103.264 19.262 103.466 19.7934L103.87 20.8893L103.971 19.7269C103.971 19.6605 103.971 19.6052 103.971 19.5609C103.971 18.4539 103.758 17.4244 103.331 16.4723C102.905 15.5203 102.422 14.7232 101.883 14.0812C101.344 13.4391 100.94 13.0074 100.671 12.786L101.816 10.9594C102.22 11.0701 102.703 11.6568 103.264 12.7196C103.848 13.7601 104.387 14.9557 104.881 16.3063L105.285 17.4686L105.386 16.2399C105.386 16.1292 105.386 16.0184 105.386 15.9077C105.386 14.3137 105.06 13.0074 104.409 11.9889C103.78 10.9705 103.253 10.3063 102.826 9.99631L104.308 8.33579C104.353 8.33579 104.42 8.35793 104.51 8.40221C104.78 8.57934 105.027 8.90037 105.251 9.36531C105.476 9.80812 105.666 10.2731 105.824 10.7601C106.003 11.2472 106.127 11.6458 106.194 11.9557L106.464 13.0849L106.699 11.9225C106.744 11.5461 106.767 11.1919 106.767 10.8598C106.767 10.107 106.587 9.38745 106.228 8.70111C105.891 7.99262 105.554 7.50553 105.217 7.23985L106.464 5.74539C106.598 5.87823 106.755 6.16605 106.935 6.60886C107.115 7.05166 107.283 7.5941 107.44 8.23616L107.743 9.53137L107.945 8.20295C108.013 7.71587 108.047 7.28413 108.047 6.90775C108.047 6.37638 107.957 5.8893 107.777 5.44649C107.597 5.00369 107.384 4.7048 107.137 4.54982L109.326 1.79336L108.788 0.664207L106.295 3.68635C105.958 3.48708 105.431 3.37638 104.712 3.35424C103.994 3.30996 103.59 3.28782 103.5 3.28782C102.152 3.28782 100.311 3.67528 97.9761 4.45018L98.1108 4.94834C99.4131 4.68266 100.581 4.49446 101.614 4.38376C102.669 4.27306 103.41 4.21771 103.836 4.21771C104.533 4.21771 105.038 4.2952 105.352 4.45018L104.813 5.24723C104.723 5.22509 104.589 5.21402 104.409 5.21402C103.982 5.21402 103.219 5.28044 102.119 5.41328C101.019 5.54613 99.2896 6.07749 96.932 7.00738L97.1004 7.50553C98.515 7.12915 99.8173 6.83026 101.007 6.60886C102.197 6.38745 103.051 6.27675 103.567 6.27675C103.657 6.27675 103.735 6.27675 103.803 6.27675L102.725 7.47232C102.411 7.49447 101.737 7.58303 100.704 7.73801C99.6714 7.89299 98.5262 8.16974 97.2688 8.56827C96.0114 8.96679 94.8888 9.5203 93.9008 10.2288L92.5536 11.1919L94.1366 10.6605C95.7308 10.1292 97.1341 9.71956 98.3466 9.43173C99.5815 9.12177 100.424 8.96679 100.873 8.96679C101.007 8.96679 101.12 8.97786 101.209 9L98.6834 12.4207C98.2119 12.4207 97.179 12.631 95.5848 13.0517C94.0131 13.4502 92.4525 14.2583 90.9032 15.476L89.4887 16.7048L91.1727 15.9077C92.4301 15.3321 93.6763 14.8339 94.9112 14.4133C96.1686 13.9705 97.1004 13.7491 97.7067 13.7491C97.8414 13.7491 97.9649 13.7601 98.0772 13.7823L96.6289 16.1734C96.2921 16.262 95.6185 16.5166 94.6081 16.9373C93.6201 17.3579 92.6097 17.9225 91.5769 18.631C90.544 19.3395 89.8255 20.1697 89.4213 21.1218L89.0845 22.0517L89.8255 21.4871C91.0829 20.4465 92.3066 19.5609 93.4966 18.8303C94.7091 18.0996 95.5624 17.7343 96.0563 17.7343C95.7195 18.2435 95.2705 18.9631 94.7091 19.893C94.1478 20.8007 93.7212 21.6199 93.4293 22.3506C93.1374 23.0812 92.9914 23.6347 92.9914 24.0111C92.9914 24.2546 93.0363 24.4539 93.1261 24.6089L93.3282 24.8081L93.564 24.476C93.6089 24.4096 93.7885 24.1328 94.1029 23.6458C94.4397 23.1365 94.8214 22.5498 95.248 21.8856C95.6971 21.1993 96.09 20.5683 96.4268 19.9926C96.7861 19.3948 97.0106 18.9631 97.1004 18.6974C97.2127 18.4539 97.2913 18.2989 97.3362 18.2325C97.4934 18.5424 97.6393 19.2731 97.774 20.4244C97.9312 21.5756 98.0435 22.8155 98.1108 24.1439L98.1445 24.8745L98.5824 24.2768ZM97.774 15.8081L97.8751 16.2066C98.0323 16.9373 98.1894 17.845 98.3466 18.9299C98.5038 19.9926 98.5824 20.9225 98.5824 21.7196C98.5824 22.0074 98.5711 22.2952 98.5487 22.583C98.3241 19.3948 97.9312 17.7565 97.3699 17.6679C97.3474 17.6679 97.325 17.6679 97.3025 17.6679C97.1453 17.6679 97.0106 17.7565 96.8983 17.9336C96.7861 18.0886 96.6963 18.2878 96.6289 18.5314C96.5391 18.7749 96.3145 19.1956 95.9553 19.7934C95.596 20.3911 95.1919 21.0443 94.7428 21.7528C94.2937 22.4391 93.8896 23.059 93.5303 23.6125C93.665 22.9041 94.0467 21.9742 94.6754 20.8229C95.3266 19.6494 96.0002 18.5535 96.6963 17.5351L96.831 17.3358L96.6289 17.1697C96.4942 17.0812 96.3258 17.0369 96.1237 17.0369C95.8767 17.0369 95.5848 17.0923 95.248 17.203C95.7195 17.0258 96.1012 16.893 96.3931 16.8044C96.685 16.6937 96.8422 16.6273 96.8647 16.6052H96.9657L98.7844 13.6162L98.616 13.4834C98.3915 13.3284 98.0772 13.2509 97.673 13.2509C97.4035 13.2509 96.9657 13.3173 96.3595 13.4502C95.7532 13.5609 94.9786 13.7934 94.0355 14.1476C95.2929 13.6384 96.3595 13.3063 97.2351 13.1513C98.1333 12.9963 98.6609 12.9188 98.8181 12.9188C98.8406 12.9188 98.8518 12.9188 98.8518 12.9188H98.9865L101.748 9.09963V9.03321C101.748 9.01107 101.748 8.98893 101.748 8.96679C101.748 8.83395 101.692 8.72325 101.58 8.63469C101.4 8.52398 101.142 8.46863 100.805 8.46863C100.513 8.46863 100.031 8.53506 99.357 8.6679C98.7059 8.7786 97.8638 8.97786 96.831 9.26568C97.7965 8.93358 98.7395 8.67897 99.6601 8.50185C100.581 8.30258 101.333 8.16974 101.917 8.10332C102.523 8.01476 102.849 7.97048 102.893 7.97048H103.028L104.544 6.34317V6.24354C104.544 6.17712 104.521 6.12177 104.476 6.07749C104.432 6.01107 104.375 5.95572 104.308 5.91144C104.241 5.86716 104.128 5.83395 103.971 5.81181C103.814 5.78967 103.634 5.7786 103.432 5.7786C103.926 5.75646 104.297 5.74539 104.544 5.74539C104.791 5.74539 104.914 5.75646 104.914 5.7786L105.083 5.84502L105.925 4.51661V4.45018C105.925 4.38376 105.902 4.31734 105.857 4.25092C105.835 4.1845 105.779 4.11808 105.689 4.05166C106.048 4.14022 106.239 4.19557 106.261 4.21771L106.43 4.31734L108.686 1.5941L108.72 1.72694L106.329 4.78229L106.666 4.91513C106.688 4.91513 106.733 4.94834 106.8 5.01476C106.868 5.05904 106.958 5.15867 107.07 5.31365C107.182 5.44649 107.272 5.63469 107.339 5.87823C107.429 6.12177 107.496 6.43173 107.541 6.80812C107.249 5.92251 106.856 5.4797 106.363 5.4797H106.261L104.51 7.4059L104.712 7.43911C104.735 7.43911 104.847 7.56089 105.049 7.80443C105.251 8.02583 105.464 8.35793 105.689 8.80074C105.936 9.2214 106.116 9.71956 106.228 10.2952C106.048 9.80812 105.835 9.35424 105.588 8.93358C105.363 8.49077 105.094 8.16974 104.78 7.97048C104.622 7.85978 104.454 7.80443 104.274 7.80443C104.229 7.80443 104.173 7.8155 104.106 7.83764L104.039 7.87085L102.051 10.0627L102.287 10.2288C102.31 10.2509 102.501 10.4391 102.86 10.7934C103.219 11.1255 103.59 11.6236 103.971 12.2878C104.375 12.952 104.656 13.7601 104.813 14.7122C104.432 13.738 103.949 12.786 103.365 11.8561C102.804 10.9262 102.242 10.4613 101.681 10.4613C101.659 10.4613 101.636 10.4613 101.614 10.4613L101.513 10.4945L99.9969 12.8524L100.165 13.0184C100.188 13.0406 100.412 13.2731 100.839 13.7159C101.288 14.1587 101.76 14.7675 102.254 15.5424C102.747 16.2952 103.107 17.1697 103.331 18.1661C102.927 17.2362 102.444 16.2841 101.883 15.31C101.322 14.3358 100.772 13.7159 100.233 13.4502C100.12 13.4059 100.008 13.3838 99.8959 13.3838C99.8061 13.3838 99.705 13.4059 99.5928 13.4502L99.5254 13.4834L98.1782 15.5756L98.3466 15.7417C98.3915 15.7417 98.5487 15.9077 98.8181 16.2399C99.11 16.572 99.4019 17.1255 99.6938 17.9004C100.008 18.6531 100.199 19.6605 100.266 20.9225C100.042 19.7712 99.7499 18.6863 99.3907 17.6679C99.0539 16.6273 98.6497 16.0406 98.1782 15.9077L97.774 15.8081ZM94.3723 17.6015C93.0476 18.3321 91.8351 19.1292 90.7348 19.9926C91.7902 18.9963 93.0027 18.1993 94.3723 17.6015ZM106.598 37.0959C107.362 36.631 107.934 36.2325 108.316 35.9004C108.72 35.5683 108.99 35.3137 109.124 35.1365C109.281 34.9594 109.36 34.8487 109.36 34.8044L109.427 34.6384L108.585 33.9077L108.451 33.941C106.901 34.3838 105.622 34.6052 104.611 34.6052C104.117 34.6052 103.679 34.5498 103.298 34.4391C104.039 34.4391 104.757 34.3948 105.453 34.3063C106.149 34.2177 106.744 34.1292 107.238 34.0406C107.732 33.9299 108.002 33.8635 108.047 33.8413L108.249 33.8081V33.6089C108.226 33.1661 107.811 32.6236 107.002 31.9816C106.194 31.3395 105.375 30.7638 104.544 30.2546C105.285 30.5646 106.037 31.0185 106.8 31.6162C107.586 32.214 108.181 32.7122 108.585 33.1107L108.889 33.3764L109.023 33.0111C109.068 32.8339 109.091 32.6347 109.091 32.4133C109.091 31.9926 108.99 31.428 108.788 30.7196C108.585 30.0111 108.35 29.3358 108.08 28.6937C108.395 29.048 108.642 29.4797 108.821 29.9889C109.001 30.476 109.124 30.9742 109.192 31.4834C109.281 31.9705 109.338 32.3911 109.36 32.7454C109.383 33.0775 109.394 33.2435 109.394 33.2435V33.3764L109.899 33.8081L109.832 35.0037C108.462 36.2435 107.384 36.941 106.598 37.0959ZM93.4966 36.1993L93.8334 36.0332L93.564 35.7675C93.1823 35.4797 92.6546 35.3358 91.981 35.3358C91.8912 35.3358 91.6218 35.3469 91.1727 35.369C90.7236 35.3911 90.0837 35.5129 89.2529 35.7343C88.4221 35.9557 87.7822 36.1439 87.3331 36.2989C87.4679 35.9004 87.771 35.3579 88.2425 34.6716C88.7365 33.9631 89.2866 33.2546 89.8928 32.5461L90.398 31.9151L89.6234 32.1476C88.2986 32.4797 86.7942 34.0295 85.1102 36.797C85.0653 36.8856 85.0429 36.941 85.0429 36.9631C84.953 37.0074 84.7734 37.0627 84.504 37.1292C84.2345 37.1956 83.9314 37.2509 83.5946 37.2952C83.5946 37.2509 83.5946 37.1956 83.5946 37.1292C83.5946 36.6421 83.7967 35.9779 84.2009 35.1365C84.605 34.2731 85.0541 33.4871 85.5481 32.7786L86.2217 31.8155L85.1776 32.4465C84.7061 32.7565 84.2121 33.2878 83.6956 34.0406C83.1792 34.7712 82.7189 35.5018 82.3148 36.2325C81.9106 36.941 81.6412 37.428 81.5064 37.6937L78.6773 38.4244L78.1384 40.2177L79.4519 39.7528C79.6091 39.952 79.8785 40.262 80.2603 40.6827C80.642 41.0812 81.0798 41.4465 81.5738 41.7786C82.0902 42.1107 82.6291 42.2878 83.1904 42.31C83.2803 42.31 83.3701 42.2989 83.4599 42.2768L84.1672 42.1771L83.5609 41.8118C83.022 41.5018 82.4719 41.1144 81.9106 40.6494C81.3493 40.1845 80.99 39.7638 80.8328 39.3875L83.1904 38.9225C83.3027 39.1661 83.5048 39.5203 83.7967 39.9852C84.0886 40.4502 84.4478 40.893 84.8745 41.3137C85.3235 41.7122 85.8287 41.9446 86.3901 42.0111L87.1984 42.1107L86.5922 41.5793C86.3452 41.3801 86.0533 41.1033 85.7165 40.7491C85.4021 40.3727 85.1327 39.9963 84.9081 39.6199C84.7061 39.2435 84.605 38.9114 84.605 38.6236C84.605 38.5572 84.6162 38.4797 84.6387 38.3911L85.8849 38.0258C86.1319 38.2251 86.5248 38.524 87.0637 38.9225C87.625 39.321 88.1639 39.6531 88.6803 39.9188C89.2192 40.1624 89.6683 40.2841 90.0276 40.2841C90.2072 40.2841 90.3644 40.262 90.4991 40.2177L90.9369 40.0849L87.9057 37.5941C88.8487 37.572 89.7357 37.4502 90.5664 37.2288C91.3972 37.0074 92.0821 36.786 92.6209 36.5646C93.1598 36.3432 93.4517 36.2214 93.4966 36.1993ZM87.131 36.8967C87.8271 36.631 88.6467 36.3875 89.5897 36.1661C90.5552 35.9446 91.3074 35.8339 91.8463 35.8339C92.2055 35.8339 92.5311 35.8672 92.823 35.9336C92.2841 36.1771 91.5432 36.4317 90.6001 36.6974C89.6571 36.941 88.7365 37.0627 87.8383 37.0627C87.6138 37.0627 87.3893 37.0517 87.1647 37.0295L86.3227 36.9631L89.6908 39.7196C89.0845 39.5646 88.4333 39.2546 87.7373 38.7897C87.0412 38.3026 86.5023 37.893 86.1206 37.5609L86.0196 37.4613L84.2345 37.9926L84.2009 38.0923C84.1335 38.2915 84.0998 38.4797 84.0998 38.6568C84.0998 38.9446 84.1896 39.2878 84.3693 39.6863C84.5489 40.0627 84.8183 40.4613 85.1776 40.8819C84.8632 40.572 84.5826 40.2399 84.3356 39.8856C84.111 39.5314 83.9314 39.2325 83.7967 38.9889C83.662 38.7232 83.5946 38.5683 83.5946 38.524L83.5273 38.3579L80.3613 38.9557V39.1882C80.3613 39.5646 80.5522 39.9742 80.9339 40.417C81.338 40.8376 81.7759 41.203 82.2474 41.5129C81.7983 41.2915 81.3829 41.0148 81.0012 40.6827C80.642 40.3284 80.3388 40.0184 80.0919 39.7528C79.8673 39.4649 79.7438 39.31 79.7214 39.2878L79.6203 39.1218L78.9467 39.3875L79.1151 38.8561L81.8769 38.1255L81.9443 38.0258C81.9443 38.0037 82.0229 37.8376 82.18 37.5277C82.3597 37.1956 82.5842 36.797 82.8536 36.3321C83.1231 35.845 83.4262 35.3579 83.763 34.8708C83.4936 35.4022 83.3027 35.8561 83.1904 36.2325C83.1006 36.6089 83.0557 36.8967 83.0557 37.0959C83.0557 37.3173 83.1006 37.5166 83.1904 37.6937L83.2915 37.8266H83.4599C83.8865 37.7823 84.2907 37.7159 84.6724 37.6273C85.0765 37.5387 85.3348 37.417 85.447 37.262C85.4695 37.2399 85.5144 37.1734 85.5817 37.0627C86.8616 34.9815 87.8945 33.6863 88.6803 33.1771C88.1864 33.797 87.7485 34.428 87.3668 35.0701C86.9851 35.7122 86.7942 36.2103 86.7942 36.5646C86.7942 36.631 86.7942 36.6863 86.7942 36.7306L86.8953 36.9963L87.131 36.8967Z" fill="#45AD6E"/>
</svg>
