<svg width="30" height="30" viewBox="0 0 30 30" fill="none" xmlns="http://www.w3.org/2000/svg">
<path d="M2.86899 25.4905L2.83286 25.4904L2.79709 25.4955C2.77016 25.4993 2.74299 25.5007 2.71588 25.4997C2.65749 25.472 2.60591 25.4283 2.56751 25.3715C2.52036 25.3018 2.4963 25.217 2.50046 25.1302L2.50104 25.1182V25.1062V24.222C2.50104 24.222 2.50104 24.222 2.50104 24.222C2.50138 20.3423 3.85698 16.5913 6.32239 13.6418C8.78761 10.6926 12.2006 8.73828 15.9477 8.12694L16.3672 8.0585V7.63346V3.88425C16.3672 3.81084 16.3872 3.73953 16.4242 3.67842C16.4612 3.61738 16.5132 3.56944 16.5734 3.53874C16.6335 3.50809 16.7 3.49542 16.7658 3.50147C16.8316 3.50752 16.8954 3.5322 16.9499 3.57393L27.3495 11.5322C27.3951 11.5671 27.4331 11.6131 27.4595 11.6671C27.486 11.7211 27.5 11.7812 27.5 11.8425C27.5 11.9038 27.486 11.9639 27.4595 12.0179C27.4331 12.0719 27.3951 12.1179 27.3495 12.1528L16.9499 20.1111C16.8954 20.1528 16.8316 20.1775 16.7658 20.1835C16.7 20.1896 16.6335 20.1769 16.5734 20.1462C16.5132 20.1155 16.4612 20.0676 16.4242 20.0066C16.3872 19.9454 16.3672 19.8741 16.3672 19.8007V16.4848V15.8946L15.785 15.9916C11.4558 16.7125 7.58188 19.1437 5.00015 22.7551L4.99951 22.756L3.16314 25.3368C3.16299 25.337 3.16285 25.3372 3.16271 25.3374C3.12773 25.386 3.08269 25.4247 3.03186 25.4509C2.98088 25.4772 2.92511 25.4906 2.86899 25.4905Z" stroke="#444444"/>
</svg>
