<svg width="25" height="25" viewBox="0 0 25 25" fill="none" xmlns="http://www.w3.org/2000/svg">
<path d="M2.43793 21.0913C2.83729 21.4424 3.14634 21.7413 3.50756 21.9499C4.0494 22.2627 4.7859 22.4469 5.28961 22.6173C6.27293 22.5825 7.12782 22.3532 7.90643 21.8388C8.14927 22.4609 8.35398 22.9406 8.75334 23.2916C9.37144 23.8895 10.1461 24.2162 10.8966 24.1676C11.6471 24.119 12.4117 23.8374 13.0097 23.2188C13.3609 22.8191 13.5696 22.4576 13.8305 22.0058L13.8305 22.0058C13.8686 22.1483 13.9589 22.2004 14.0492 22.2525C14.9242 23.2397 15.8794 23.6707 17.0434 23.7402C18.2073 23.8098 19.309 23.3615 20.1539 22.5238C20.9987 21.6862 21.4301 20.7304 21.5003 19.566L21.4762 19.1906C21.414 18.6727 21.3518 18.1548 21.1471 17.6752C21.109 17.5327 21.0186 17.4805 20.9805 17.338C21.8735 17.2512 22.5478 16.9175 23.1839 16.4414C23.8722 15.8748 24.095 15.2805 24.1893 14.4915C24.1971 14.4293 24.2019 14.3103 24.2033 14.2586C24.2595 13.3271 23.836 12.6007 23.1798 11.8603C22.7804 11.5093 22.3811 11.1582 21.6968 10.8836L21.6064 10.8315C22.4513 9.99383 22.9349 8.94765 22.9148 7.73114L22.8767 7.58863C22.8947 6.51462 22.4331 5.64568 21.5962 4.80105C20.7072 4.04679 19.752 3.61577 18.588 3.54622C17.7994 3.45236 16.9445 3.68173 16.218 4.10575C16.1839 3.12212 15.8126 2.30531 15.1042 1.65532C14.3436 1.09571 13.8018 0.782876 12.8706 0.727239C12.0298 0.72374 11.1609 1.18599 10.4585 1.98539C9.95082 2.6562 9.5856 3.28877 9.34882 4.11599C8.58824 3.55638 7.7233 3.1775 6.64967 3.16009C5.48574 3.09054 4.4362 3.44851 3.55323 4.14364C2.67027 4.83876 2.23883 5.79458 2.2208 6.86858C2.24489 7.24396 2.35929 7.67148 2.47369 8.09899L2.47369 8.099C2.58809 8.52652 2.75466 8.86368 3.06371 9.1626C2.54596 9.22515 2.10448 9.57271 1.663 9.92027C1.11717 10.4486 0.842257 11.1333 0.838267 11.9744C0.914532 12.2594 0.938624 12.6348 1.1052 12.972C1.3099 13.4516 1.56678 13.8409 1.92801 14.0495C2.23706 14.3484 2.68859 14.6091 3.04982 14.8176L2.60834 15.1652C1.6732 15.9507 1.24177 16.9065 1.20969 18.2134C1.23378 18.5888 1.25788 18.9641 1.41041 19.5342C1.61511 20.0138 1.91013 20.5456 2.43793 21.0913Z" fill="#45AD6E"/>
<path d="M24.0687 5.98625L22.8236 4.98332C20.7371 6.72409 16.6475 10.5112 10.5549 16.3447C9.76076 15.4633 11.1503 16.8191 9.85318 15.5416C8.55605 14.264 7.53568 13.2219 6.79209 12.4151C6.50568 12.5548 6.15763 12.8074 5.74795 13.173C5.32567 13.5262 5.00262 13.7787 4.77879 13.9304C6.52777 15.4544 6.2453 15.0401 8.8018 17.558L10.8986 19.6231C12.6713 17.6972 15.0956 15.1727 18.1716 12.0495C21.235 8.91388 23.2007 6.8928 24.0687 5.98625Z" fill="white"/>
</svg>
