<svg width="24" height="24" viewBox="0 0 24 24" fill="none" xmlns="http://www.w3.org/2000/svg">
<path d="M12.0001 22C17.5229 22 22.0001 17.5228 22.0001 12C22.0001 6.47715 17.5229 2 12.0001 2C6.47721 2 2.00006 6.47715 2.00006 12C2.00006 17.5228 6.47721 22 12.0001 22Z" stroke="#444444" stroke-miterlimit="10" stroke-linecap="round" stroke-linejoin="round"/>
<path d="M12.0001 15C8.93756 15 6.31256 16.6867 5.00006 19.2169C6.75006 20.988 9.28756 22 12.0001 22C14.7126 22 17.2501 20.9036 19.0001 19.2169C17.6876 16.7711 15.0626 15 12.0001 15Z" stroke="#444444" stroke-miterlimit="10" stroke-linecap="round" stroke-linejoin="round"/>
<path d="M12.0001 12C13.6569 12 15.0001 10.6569 15.0001 9C15.0001 7.34315 13.6569 6 12.0001 6C10.3432 6 9.00006 7.34315 9.00006 9C9.00006 10.6569 10.3432 12 12.0001 12Z" stroke="#444444" stroke-miterlimit="10" stroke-linecap="round" stroke-linejoin="round"/>
</svg>
